PathFileType	4	(X/Y/Z)	C:\Users\Basilio\Documents\Thesis Gigler\squatting_fais\c3dfiles\054\SLS_back_pre4\markers_experimental.trc
DataRate	CameraRate	NumFrames	NumMarkers	Units	OrigDataRate	OrigDataStartFrame	OrigNumFrames
200.000000	200.000000	4	61	mm	200.000000	959	1535
Frame#	Time	FHD			LBHD			RBHD			C7			T10			CLAV			LSHO			LUUPA			LMUPA			LDUPA			LLEP			LMEP			LRAD			LUL			LRFIN			RSHO			RUPA1			RMUPA			RDUPA			RLEP			RMEP			RRAD			RUL			RUFIN			LASI			RASI			USACR			LSACR			RSACR			LTHI1			LTHI2			LTHI3			LTHI4			LLFC			LMFC			LTIB1			LTIB2			LTIB3			LTIB4			LLMAL			LMMAL			LHEE			LMT1			LMT2			LMT5			RTHI			RTHI2			RTHI3			RTHI4			RLFC			RMFC			RTIB1			RTIB2			RTIB3			RTIB4			RLMAL			RMMAL			RHEE			RMT1			RMT2			RMT5			
		X1	Y1	Z1	X2	Y2	Z2	X3	Y3	Z3	X4	Y4	Z4	X5	Y5	Z5	X6	Y6	Z6	X7	Y7	Z7	X8	Y8	Z8	X9	Y9	Z9	X10	Y10	Z10	X11	Y11	Z11	X12	Y12	Z12	X13	Y13	Z13	X14	Y14	Z14	X15	Y15	Z15	X16	Y16	Z16	X17	Y17	Z17	X18	Y18	Z18	X19	Y19	Z19	X20	Y20	Z20	X21	Y21	Z21	X22	Y22	Z22	X23	Y23	Z23	X24	Y24	Z24	X25	Y25	Z25	X26	Y26	Z26	X27	Y27	Z27	X28	Y28	Z28	X29	Y29	Z29	X30	Y30	Z30	X31	Y31	Z31	X32	Y32	Z32	X33	Y33	Z33	X34	Y34	Z34	X35	Y35	Z35	X36	Y36	Z36	X37	Y37	Z37	X38	Y38	Z38	X39	Y39	Z39	X40	Y40	Z40	X41	Y41	Z41	X42	Y42	Z42	X43	Y43	Z43	X44	Y44	Z44	X45	Y45	Z45	X46	Y46	Z46	X47	Y47	Z47	X48	Y48	Z48	X49	Y49	Z49	X50	Y50	Z50	X51	Y51	Z51	X52	Y52	Z52	X53	Y53	Z53	X54	Y54	Z54	X55	Y55	Z55	X56	Y56	Z56	X57	Y57	Z57	X58	Y58	Z58	X59	Y59	Z59	X60	Y60	Z60	X61	Y61	Z61	

960	4.795	6.144142150878908	1397.088012695313	-1083.956665039063	-160.5407867431641	1359.917602539063	-1152.478393554688	-175.0103454589844	1357.88818359375	-1012.707824707031	-225.2361755371094	1223.5263671875	-1067.024658203125	-400.9556274414064	953.9102172851565	-1044.701904296875	-114.217269897461	1117.271606445313	-1081.7451171875	-155.0516204833985	1211.306762695313	-1212.647338867188	-21.60524940490723	1093.828125	-1343.09765625	12.01420497894287	1125.010620117188	-1327.332763671875	45.76073455810548	1082.3837890625	-1353.154541015625	105.8913650512696	1083.020385742188	-1350.035400390625	103.7953262329102	1015.032348632813	-1305.77685546875	351.1387023925782	1107.193481445313	-1240.52001953125	376.6575012207032	1077.665649414063	-1308.303955078125	443.0992736816407	1133.393432617188	-1249.37451171875	-140.8490447998047	1208.637817382813	-944.274597167969	4.130045413970948	1092.080688476563	-815.9349365234377	39.97208786010743	1120.380981445313	-830.1127929687502	71.53849029541017	1072.694946289063	-807.0709228515627	116.7325286865235	1064.841918945313	-810.6850585937502	109.7343368530274	1007.856079101563	-861.787780761719	360.4165649414063	1131.229736328125	-949.9146728515627	376.1023559570313	1100.408447265625	-877.9385986328127	434.5296325683595	1168.743041992188	-945.8172607421877	-318.2564392089844	748.6794433593751	-1179.392700195313	-319.1818847656251	715.2062377929689	-928.7717285156252	-448.4953002929689	881.3635253906252	-1041.07275390625	-472.1846008300782	859.9847412109377	-1070.893798828125	-466.6970825195314	852.2796020507815	-1013.701904296875	-317.5220336914063	589.1010742187501	-1258.443115234375	-236.7039031982422	563.8497314453126	-1249.48583984375	-208.9834289550782	601.3803710937501	-1242.066772460938	-213.8028106689454	509.978729248047	-1234.760498046875	-115.5512313842774	421.2907714843751	-1192.1494140625	-95.17285919189455	451.8270874023439	-1058.27294921875	-144.105453491211	285.6154479980469	-1104.848266601563	-207.8536224365235	254.695297241211	-1159.684814453125	-179.3434753417969	243.6053314208985	-1127.356567382813	-228.883285522461	193.4624786376954	-1080.51416015625	-352.6522827148438	104.2867965698242	-1106.265502929688	-318.7262573242188	132.1865692138672	-1015.299377441406	-427.0014648437501	101.5606765747071	-1043.587036132813	-216.0023498535157	56.24415206909181	-1020.211486816406	-208.0686645507813	53.032283782959	-1069.751586914063	-259.9558410644532	37.04033279418946	-1120.614624023438	-443.6857299804689	445.5904846191407	-845.3218994140627	-409.3562622070314	387.0374755859376	-844.1292724609377	-376.6902770996094	383.0679931640626	-850.848815917969	-447.226776123047	313.8056640625001	-861.5915527343752	-471.3834838867189	271.6215515136719	-869.7655029296877	-422.8189086914064	237.1106262207032	-999.339538574219	-559.4742431640626	213.4488220214844	-904.9450683593752	-630.7122192382814	290.2919921875001	-879.279235839844	-639.2688598632814	248.3619689941407	-897.9139404296877	-682.5397338867189	246.2699737548829	-936.694030761719	-847.1834106445315	330.9353942871094	-946.540954589844	-814.364929199219	299.2778015136719	-1033.581909179688	-836.8809204101565	404.0549926757814	-998.0634765625002	-927.553405761719	209.9507446289063	-1060.58642578125	-941.6445922851565	201.4752044677735	-1014.243469238281	-958.9796142578127	249.4822235107422	-967.9415283203127	
961	4.8	6.100654602050783	1397.133911132813	-1083.966674804688	-160.5924072265625	1359.939208984375	-1152.406982421875	-175.1910705566407	1357.935546875	-1012.5986328125	-225.3686981201172	1223.5234375	-1066.845581054688	-401.0234985351564	953.8189086914065	-1044.506713867188	-114.2856216430664	1117.274169921875	-1081.661010742188	-155.1958312988282	1211.396484375	-1212.538696289063	-21.75817298889161	1093.898193359375	-1343.01318359375	11.90131664276123	1125.180419921875	-1327.29443359375	45.55810546875001	1082.586791992188	-1353.0791015625	105.6811141967774	1083.238403320313	-1350.02001953125	103.6312561035157	1015.248657226563	-1305.794799804688	351.0612792968751	1107.361938476563	-1240.548217773438	376.5310058593751	1077.871459960938	-1308.327758789063	442.9277648925782	1133.632446289063	-1249.398315429688	-140.9503784179688	1208.755493164063	-944.0640869140627	4.147471427917481	1092.058959960938	-815.8704833984377	40.00890731811524	1120.392700195313	-830.073913574219	71.53802490234376	1072.724487304688	-807.047790527344	116.7668380737305	1064.886108398438	-810.6619262695315	109.7341918945313	1007.869750976563	-861.787536621094	360.3898315429688	1131.450439453125	-950.053161621094	376.0722351074219	1100.469848632813	-877.9952392578127	434.4914550781251	1168.792602539063	-945.9082031250002	-317.7176513671876	749.2252197265626	-1179.218872070313	-319.1046447753907	715.1852416992189	-928.7729492187502	-448.6260986328126	881.2846679687502	-1040.873413085938	-471.8875122070314	859.7708740234377	-1070.841186523438	-466.6672668457032	852.205261230469	-1013.616333007813	-317.5715332031251	589.1322021484376	-1258.496704101563	-236.7920227050782	563.9442749023439	-1249.693725585938	-209.0001525878907	601.3933105468751	-1242.17041015625	-214.1900634765626	509.9757385253907	-1234.73291015625	-115.0034942626953	421.032928466797	-1192.400390625	-95.16277313232423	451.760955810547	-1058.48974609375	-144.1111755371094	285.5931701660157	-1104.994140625	-207.8557739257813	254.6155853271485	-1159.776245117188	-179.3656616210938	243.5378570556641	-1127.456298828125	-228.8454132080079	193.4690246582032	-1080.576416015625	-352.8255920410157	104.2933807373047	-1106.3623046875	-318.7225341796876	132.2009582519532	-1015.333801269531	-427.0072021484376	101.556999206543	-1043.611694335938	-216.0179443359376	56.25924682617189	-1020.261413574219	-208.0041046142579	53.08332824707033	-1069.771850585938	-259.9193420410157	37.0207748413086	-1120.662353515625	-443.4651184082032	445.4524536132814	-845.3496093750002	-409.2325744628907	386.956024169922	-844.122009277344	-376.5361633300782	382.9265441894532	-850.9201660156252	-447.112030029297	313.7200012207032	-861.5903320312502	-471.1756286621095	271.4698181152344	-869.689880371094	-422.8580627441407	236.9397888183594	-999.320007324219	-559.2922363281251	213.3402404785157	-904.8819580078127	-630.4749145507814	290.1202697753907	-879.1485595703127	-639.1104736328126	248.2503509521485	-897.7424926757815	-682.3583374023439	246.1172943115235	-936.5003662109377	-847.0217895507815	330.6717834472657	-946.1750488281252	-814.3017578125002	299.1113891601563	-1033.347290039063	-836.7084960937502	403.8522033691407	-997.6495361328127	-927.5061035156252	209.8494873046876	-1060.138793945313	-941.620300292969	201.3546752929688	-1013.549682617188	-958.9227294921877	249.3914794921876	-967.4781494140627	
962	4.805	6.00808620452881	1397.152587890625	-1083.951293945313	-163.3421325683594	1359.876708984375	-1152.275634765625	-175.2571258544922	1357.994262695313	-1012.47412109375	-225.4745025634766	1223.538696289063	-1066.64990234375	-401.0229797363282	953.764831542969	-1044.35546875	-114.3029403686524	1117.346313476563	-1081.526123046875	-155.4546051025391	1211.435302734375	-1212.338623046875	-22.00610733032227	1094.03125	-1342.899169921875	12.40144157409668	1124.953125	-1327.183959960938	45.42979049682618	1082.755004882813	-1353.020874023438	105.5293502807617	1083.459838867188	-1350.0244140625	103.173210144043	1015.972717285156	-1306.237426757813	350.9382324218751	1107.531127929688	-1240.635864257813	376.3233947753907	1078.081298828125	-1308.3427734375	442.8246154785157	1133.901611328125	-1249.416625976563	-140.9826354980469	1208.769775390625	-943.9575195312502	4.126935482025147	1092.078247070313	-815.8037719726565	40.00458908081055	1120.436767578125	-830.038269042969	71.54197692871095	1072.78466796875	-807.0529785156252	116.7834854125977	1064.945678710938	-810.5996093750002	109.7306594848633	1007.935424804688	-861.7399902343752	360.2844848632813	1131.724731445313	-950.0952758789065	376.1130371093751	1100.69921875	-878.0522460937502	434.471160888672	1168.880859375	-945.9902954101565	-318.3382873535157	748.8995361328126	-1179.300048828125	-319.0461425781251	715.1307983398439	-928.7851562500002	-448.5906677246095	881.227966308594	-1040.81982421875	-472.1195373535157	859.9214477539065	-1070.64501953125	-466.6036987304689	852.120056152344	-1013.531433105469	-317.6532897949219	589.1774291992189	-1258.546752929688	-236.7801513671876	563.9619750976564	-1249.8291015625	-209.0676879882813	601.4334716796876	-1242.29248046875	-214.2962646484376	510.0378723144532	-1234.857055664063	-115.088134765625	420.9675292968751	-1192.579223632813	-95.2019500732422	451.8010864257814	-1058.65771484375	-144.13232421875	285.5692749023438	-1105.175415039063	-207.7740478515626	254.5820465087891	-1159.916015625	-179.3936614990235	243.5378570556641	-1127.570068359375	-228.7975463867188	193.4092559814454	-1080.72412109375	-352.8644714355469	104.2901992797852	-1106.411499023438	-318.7333068847657	132.217025756836	-1015.396362304688	-426.9847106933595	101.5907669067383	-1043.612915039063	-216.0050048828126	56.26130294799806	-1020.27685546875	-207.9933776855469	53.08951568603517	-1069.78955078125	-259.9224853515626	37.02363204956055	-1120.679321289063	-443.2238769531251	445.3644104003907	-845.4114379882815	-409.133270263672	386.9116210937501	-844.0654907226565	-376.2380981445313	382.8543395996094	-851.0112304687502	-446.9673156738282	313.6707458496094	-861.5584716796877	-470.9487915039064	271.3943786621094	-869.6308593750002	-422.8275146484376	236.7969665527344	-999.275085449219	-559.0544433593751	213.2088165283204	-904.7436523437502	-630.3492431640626	290.0119323730469	-878.9932250976565	-639.0354614257814	248.2098083496094	-897.598815917969	-682.2202758789064	245.9443054199219	-936.1853637695315	-846.8006591796877	330.5060119628907	-945.9854125976565	-814.1875610351565	298.9513854980469	-1033.001586914063	-836.6523437500002	403.6106567382814	-997.2849121093752	-927.3636474609377	209.8281555175782	-1059.800659179688	-941.5574951171877	201.1853027343751	-1013.005310058594	-958.849548339844	249.3042755126954	-966.9895629882815	
963	4.81	5.935833454132081	1397.231567382813	-1083.984008789063	-160.9224853515625	1360.0751953125	-1152.145263671875	-175.4799194335938	1358.050048828125	-1012.271118164063	-225.555160522461	1223.552978515625	-1066.509399414063	-401.0544738769532	953.7383422851565	-1044.229736328125	-114.5079574584961	1117.375	-1081.455932617188	-155.5931701660157	1211.571044921875	-1212.159912109375	-22.16581535339356	1094.192626953125	-1342.771850585938	12.23509025573731	1125.167846679688	-1327.149169921875	45.28808212280274	1082.977294921875	-1352.991577148438	105.3308029174805	1083.6962890625	-1349.968139648438	102.9972534179688	1016.26513671875	-1306.229736328125	350.7572021484376	1107.713134765625	-1240.648193359375	376.1986389160157	1078.323120117188	-1308.372436523438	442.645965576172	1134.152709960938	-1249.484985351563	-141.0048065185547	1208.78173828125	-943.832702636719	4.116215229034425	1092.1357421875	-815.7322998046877	40.00914764404298	1120.491821289063	-829.951110839844	71.5477752685547	1072.846313476563	-806.9436645507815	116.7712860107422	1064.979858398438	-810.5991821289065	109.7001037597657	1008.009826660156	-861.7578125000002	360.2362670898438	1131.830932617188	-950.1452636718752	376.1640625000001	1100.848510742188	-878.097839355469	434.3571166992189	1169.042602539063	-946.035095214844	-318.0366210937501	749.1549072265626	-1179.1552734375	-319.0331420898438	715.0672607421876	-928.7747192382815	-448.5791931152345	881.2153930664065	-1040.73828125	-471.8408508300782	859.7402954101565	-1070.640380859375	-466.6593322753907	852.071960449219	-1013.38916015625	-317.8915100097657	589.3921508789064	-1258.665893554688	-236.8027038574219	564.0859985351564	-1249.945434570313	-209.0898742675782	601.4543457031251	-1242.352783203125	-214.0272521972657	510.0651245117189	-1235.200439453125	-115.1262817382813	421.0003356933595	-1192.778930664063	-95.19821166992189	451.7400817871095	-1058.8525390625	-144.1323852539063	285.5481262207032	-1105.338623046875	-207.6763916015626	254.5758209228516	-1160.055908203125	-179.4178924560547	243.471664428711	-1127.670654296875	-228.8396759033204	193.4453735351563	-1080.77587890625	-352.9133911132813	104.2248840332032	-1106.4423828125	-318.7434997558594	132.2264709472657	-1015.451538085938	-426.9941406250001	101.5892562866211	-1043.63818359375	-216.0194091796876	56.2489585876465	-1020.298278808594	-208.0843505859376	53.05010986328126	-1069.807983398438	-259.9112243652344	36.97906875610352	-1120.701171875	-442.9256591796876	445.2427062988282	-845.446716308594	-408.9813537597657	386.7756958007814	-844.0505371093752	-376.1029663085938	382.8499755859376	-851.0068969726565	-446.7714233398439	313.5734558105469	-861.5545043945315	-470.6893310546876	271.3944396972657	-869.6372680664065	-422.6582031250001	236.7070617675782	-999.276794433594	-558.8474731445314	213.1477813720704	-904.6242675781252	-630.1923217773439	289.9627685546876	-878.8796386718752	-638.8688964843751	248.2048492431641	-897.3900146484377	-682.1195068359376	245.804916381836	-935.9038085937502	-846.6687011718752	330.4004516601563	-945.636169433594	-814.1616821289065	298.8289489746094	-1032.639404296875	-836.5029907226565	403.4587707519532	-996.883483886719	-927.262878417969	209.6046142578126	-1059.455444335938	-941.434753417969	201.0896301269532	-1012.462280273438	-958.7832031250002	249.2618713378907	-966.605895996094	
